<?xml version="1.0" encoding="utf-8"?>
<!-- Generator: Adobe Illustrator 18.0.0, SVG Export Plug-In . SVG Version: 6.00 Build 0)  -->
<!DOCTYPE svg PUBLIC "-//W3C//DTD SVG 1.1//EN" "http://www.w3.org/Graphics/SVG/1.1/DTD/svg11.dtd">
<svg version="1.1" id="Layer_1" xmlns="http://www.w3.org/2000/svg" xmlns:xlink="http://www.w3.org/1999/xlink" x="0px" y="0px"
	 viewBox="0 0 78 27.4" enable-background="new 0 0 78 27.4" xml:space="preserve">
<g>
	<path id="e_1_" fill="#1D1D1D" d="M72.1,21.9c-1.3,0-2.5-0.5-3.4-1.4c-0.9-0.9-1.4-2.2-1.4-3.6V9.1c0-1.1,0.5-2.3,1.4-3.1
		c0.9-0.9,2.1-1.4,3.4-1.4h1.2c2.6,0,4.8,2.1,4.8,4.8v1.3c0,2.7-2.1,4.8-4.8,4.8h-3.8v1.7c0,1.4,1.2,2.6,2.6,2.6h1.2
		c0.9,0,1.8-0.5,2.3-1.4c0-0.1,0.1-0.1,0.2-0.2c0,0,0.1,0,0.1,0c0.1,0,0.1,0,0.2,0l1.3,0.7c0.2,0.1,0.2,0.3,0.1,0.4
		c-0.8,1.5-2.4,2.5-4.2,2.5H72.1z M72.1,6.8c-1.4,0-2.6,1.2-2.6,2.6v4h3.8c1.4,0,2.6-1.2,2.6-2.6V9.4c0-1.4-1.2-2.6-2.6-2.6H72.1z"
		/>
	<path id="t" fill="#1D1D1D" d="M64.2,21.9c-2.6,0-4.8-2.1-4.8-4.8V1.8c0-0.5,0.4-1,1-1h0.8c0.2,0,0.4,0.1,0.4,0.3v3.4h3.2
		c0.2,0,0.3,0.1,0.3,0.3v1.5c0,0.2-0.1,0.3-0.3,0.3h-3.2v10.4c0,1.4,1.2,2.6,2.6,2.6h1.4c0.2,0,0.3,0.2,0.3,0.3v1.5
		c0,0.2-0.1,0.3-0.3,0.3H64.2z"/>
	<path id="a" fill="#1D1D1D" d="M51.3,21.9c-2.6,0-4.8-2.1-4.8-4.8v-1.6c0-2.7,2.1-4.8,4.8-4.8h3.8V9.4c0-1.4-1.2-2.6-2.6-2.6h-1.2
		c-1,0-1.9,0.6-2.4,1.5c0,0.1-0.1,0.1-0.2,0.2c0,0-0.1,0-0.1,0c-0.1,0-0.1,0-0.2,0l-1.3-0.7C47,7.6,47,7.4,47,7.2
		c0.8-1.6,2.5-2.6,4.3-2.6h1.2c2.6,0,4.8,2.1,4.8,4.8v7.8c0,2.6-2.1,4.8-4.8,4.8H51.3z M51.3,12.9c-1.4,0-2.6,1.2-2.6,2.6v1.6
		c0,1.4,1.2,2.6,2.6,2.6h1.2c1.4,0,2.6-1.2,2.6-2.6v-4.2H51.3z"/>
	<path id="g" fill="#1D1D1D" d="M38.4,27.4c-1.7,0-3.4-1-4.2-2.5c-0.1-0.2,0-0.4,0.1-0.4l1.3-0.7c0.1,0,0.1,0,0.2,0c0,0,0.1,0,0.1,0
		c0.1,0,0.2,0.1,0.2,0.2c0.5,0.9,1.3,1.4,2.3,1.4h1.2c1.4,0,2.6-1.2,2.6-2.6v-1.5l-0.1,0.1c-0.8,0.5-1.6,0.7-2.5,0.7h-1.2
		c-2.6,0-4.8-2.1-4.8-4.8V9.3c0-2.6,2.1-4.8,4.8-4.8h1.2c2.6,0,4.8,2.1,4.8,4.8v13.3c0,2.6-2.1,4.8-4.8,4.8H38.4z M38.4,6.7
		c-1.4,0-2.6,1.2-2.6,2.6v7.8c0,1.4,1.2,2.6,2.6,2.6h1.2c1.4,0,2.6-1.2,2.6-2.6V9.3c0-1.4-1.2-2.6-2.6-2.6H38.4z"/>
	<path id="a_1_" fill="#1D1D1D" d="M25.5,21.9c-2.6,0-4.8-2.1-4.8-4.8V9.4c0-2.6,2.1-4.8,4.8-4.8h1.2c0.9,0,1.8,0.2,2.5,0.7l0.1,0.1
		V1.7h0V1c0-0.5,0.4-1,1-1h0.9c0.2,0,0.3,0.1,0.3,0.3v16.8c0,2.6-2.1,4.8-4.8,4.8H25.5z M25.5,6.8c-1.4,0-2.6,1.2-2.6,2.6v7.8
		c0,1.4,1.2,2.6,2.6,2.6h1.2c1.4,0,2.6-1.2,2.6-2.6V9.4c0-1.4-1.2-2.6-2.6-2.6H25.5z"/>
	<path id="e" fill="#1D1D1D" d="M12.7,21.9c-1.3,0-2.5-0.5-3.4-1.4c-0.9-0.9-1.4-2.2-1.4-3.6V9.1c0-1.1,0.5-2.3,1.4-3.1
		c0.9-0.9,2.1-1.4,3.4-1.4h1.2c2.6,0,4.8,2.1,4.8,4.8v1.3c0,2.7-2.1,4.8-4.8,4.8h-3.8v1.7c0,1.4,1.2,2.6,2.6,2.6h1.2
		c0.9,0,1.7-0.5,2.2-1.2c0.1-0.1,0.2-0.2,0.3-0.2c0.1,0,0.1,0,0.2,0l1.3,0.7c0.1,0,0.1,0.1,0.2,0.2c0,0.1,0,0.2,0,0.3
		c-0.9,1.4-2.4,2.3-4.1,2.3H12.7z M12.7,6.8c-1.4,0-2.6,1.2-2.6,2.6v4h3.8c1.4,0,2.6-1.2,2.6-2.6V9.4c0-1.4-1.2-2.6-2.6-2.6H12.7z"
		/>
	<path id="r" fill="#1D1D1D" d="M0.3,21.9c-0.2,0-0.3-0.1-0.3-0.3V9.3c0-2.6,2.1-4.8,4.8-4.8h2c0.2,0,0.3,0.1,0.3,0.3v0.9
		c0,0.5-0.4,1-1,1H4.8c-1.4,0-2.6,1.2-2.6,2.6v12.3c0,0.2-0.1,0.3-0.3,0.3H0.3z"/>
</g>
</svg>
